<mxfile host="Electron" modified="2024-05-04T17:36:53.777Z" agent="Mozilla/5.0 (Macintosh; Intel Mac OS X 10_15_7) AppleWebKit/537.36 (KHTML, like Gecko) draw.io/24.2.5 Chrome/120.0.6099.109 Electron/28.1.0 Safari/537.36" etag="1A40Ic2PLMRUAa0ckf4q" version="24.2.5" type="device">
  <diagram name="Page-1" id="1-x05Qz9EBzfcr9VJau_">
    <mxGraphModel dx="1134" dy="661" grid="1" gridSize="10" guides="1" tooltips="1" connect="1" arrows="1" fold="1" page="1" pageScale="1" pageWidth="850" pageHeight="1100" math="0" shadow="0">
      <root>
        <mxCell id="0" />
        <mxCell id="1" parent="0" />
        <mxCell id="uK-jH9T4eVtaYrgtIjJp-31" style="edgeStyle=orthogonalEdgeStyle;rounded=0;orthogonalLoop=1;jettySize=auto;html=1;exitX=0.5;exitY=1;exitDx=0;exitDy=0;entryX=0.5;entryY=0;entryDx=0;entryDy=0;" edge="1" parent="1" source="uK-jH9T4eVtaYrgtIjJp-1" target="uK-jH9T4eVtaYrgtIjJp-2">
          <mxGeometry relative="1" as="geometry" />
        </mxCell>
        <mxCell id="uK-jH9T4eVtaYrgtIjJp-1" value="Import old debounce component" style="rounded=1;whiteSpace=wrap;html=1;" vertex="1" parent="1">
          <mxGeometry x="160" y="80" width="120" height="60" as="geometry" />
        </mxCell>
        <mxCell id="uK-jH9T4eVtaYrgtIjJp-32" style="edgeStyle=orthogonalEdgeStyle;rounded=0;orthogonalLoop=1;jettySize=auto;html=1;exitX=0.5;exitY=1;exitDx=0;exitDy=0;entryX=0.5;entryY=0;entryDx=0;entryDy=0;" edge="1" parent="1" source="uK-jH9T4eVtaYrgtIjJp-2" target="uK-jH9T4eVtaYrgtIjJp-3">
          <mxGeometry relative="1" as="geometry" />
        </mxCell>
        <mxCell id="uK-jH9T4eVtaYrgtIjJp-2" value="Design pulse detector component" style="rounded=1;whiteSpace=wrap;html=1;" vertex="1" parent="1">
          <mxGeometry x="160" y="170" width="120" height="60" as="geometry" />
        </mxCell>
        <mxCell id="uK-jH9T4eVtaYrgtIjJp-33" style="edgeStyle=orthogonalEdgeStyle;rounded=0;orthogonalLoop=1;jettySize=auto;html=1;exitX=0.5;exitY=1;exitDx=0;exitDy=0;entryX=0.5;entryY=0;entryDx=0;entryDy=0;" edge="1" parent="1" source="uK-jH9T4eVtaYrgtIjJp-3" target="uK-jH9T4eVtaYrgtIjJp-4">
          <mxGeometry relative="1" as="geometry" />
        </mxCell>
        <mxCell id="uK-jH9T4eVtaYrgtIjJp-3" value="Run simulation to verify component functionality" style="rounded=1;whiteSpace=wrap;html=1;" vertex="1" parent="1">
          <mxGeometry x="160" y="260" width="120" height="60" as="geometry" />
        </mxCell>
        <mxCell id="uK-jH9T4eVtaYrgtIjJp-34" style="edgeStyle=orthogonalEdgeStyle;rounded=0;orthogonalLoop=1;jettySize=auto;html=1;exitX=0.5;exitY=1;exitDx=0;exitDy=0;entryX=0.5;entryY=0;entryDx=0;entryDy=0;" edge="1" parent="1" source="uK-jH9T4eVtaYrgtIjJp-4" target="uK-jH9T4eVtaYrgtIjJp-6">
          <mxGeometry relative="1" as="geometry" />
        </mxCell>
        <mxCell id="uK-jH9T4eVtaYrgtIjJp-4" value="Design random number generator component" style="rounded=1;whiteSpace=wrap;html=1;" vertex="1" parent="1">
          <mxGeometry x="160" y="350" width="120" height="60" as="geometry" />
        </mxCell>
        <mxCell id="uK-jH9T4eVtaYrgtIjJp-35" style="edgeStyle=orthogonalEdgeStyle;rounded=0;orthogonalLoop=1;jettySize=auto;html=1;exitX=0.5;exitY=1;exitDx=0;exitDy=0;entryX=0.5;entryY=0;entryDx=0;entryDy=0;" edge="1" parent="1" source="uK-jH9T4eVtaYrgtIjJp-6" target="uK-jH9T4eVtaYrgtIjJp-7">
          <mxGeometry relative="1" as="geometry" />
        </mxCell>
        <mxCell id="uK-jH9T4eVtaYrgtIjJp-6" value="Run simulation to verify component functionality" style="rounded=1;whiteSpace=wrap;html=1;" vertex="1" parent="1">
          <mxGeometry x="160" y="440" width="120" height="60" as="geometry" />
        </mxCell>
        <mxCell id="uK-jH9T4eVtaYrgtIjJp-36" style="edgeStyle=orthogonalEdgeStyle;rounded=0;orthogonalLoop=1;jettySize=auto;html=1;exitX=0.5;exitY=1;exitDx=0;exitDy=0;entryX=0.5;entryY=0;entryDx=0;entryDy=0;" edge="1" parent="1" source="uK-jH9T4eVtaYrgtIjJp-7" target="uK-jH9T4eVtaYrgtIjJp-8">
          <mxGeometry relative="1" as="geometry" />
        </mxCell>
        <mxCell id="uK-jH9T4eVtaYrgtIjJp-7" value="Design Simon Says finite state machine" style="rounded=1;whiteSpace=wrap;html=1;" vertex="1" parent="1">
          <mxGeometry x="160" y="530" width="120" height="60" as="geometry" />
        </mxCell>
        <mxCell id="uK-jH9T4eVtaYrgtIjJp-37" style="edgeStyle=orthogonalEdgeStyle;rounded=0;orthogonalLoop=1;jettySize=auto;html=1;exitX=0.5;exitY=1;exitDx=0;exitDy=0;entryX=0.5;entryY=0;entryDx=0;entryDy=0;" edge="1" parent="1" source="uK-jH9T4eVtaYrgtIjJp-8" target="uK-jH9T4eVtaYrgtIjJp-9">
          <mxGeometry relative="1" as="geometry" />
        </mxCell>
        <mxCell id="uK-jH9T4eVtaYrgtIjJp-8" value="Design Simon Says component" style="rounded=1;whiteSpace=wrap;html=1;" vertex="1" parent="1">
          <mxGeometry x="360" y="80" width="120" height="60" as="geometry" />
        </mxCell>
        <mxCell id="uK-jH9T4eVtaYrgtIjJp-38" style="edgeStyle=orthogonalEdgeStyle;rounded=0;orthogonalLoop=1;jettySize=auto;html=1;exitX=0.5;exitY=1;exitDx=0;exitDy=0;entryX=0.5;entryY=0;entryDx=0;entryDy=0;" edge="1" parent="1" source="uK-jH9T4eVtaYrgtIjJp-9" target="uK-jH9T4eVtaYrgtIjJp-10">
          <mxGeometry relative="1" as="geometry" />
        </mxCell>
        <mxCell id="uK-jH9T4eVtaYrgtIjJp-9" value="Run simulation to verify component functionality" style="rounded=1;whiteSpace=wrap;html=1;" vertex="1" parent="1">
          <mxGeometry x="360" y="170" width="120" height="60" as="geometry" />
        </mxCell>
        <mxCell id="uK-jH9T4eVtaYrgtIjJp-39" style="edgeStyle=orthogonalEdgeStyle;rounded=0;orthogonalLoop=1;jettySize=auto;html=1;exitX=0.5;exitY=1;exitDx=0;exitDy=0;entryX=0.5;entryY=0;entryDx=0;entryDy=0;" edge="1" parent="1" source="uK-jH9T4eVtaYrgtIjJp-10" target="uK-jH9T4eVtaYrgtIjJp-12">
          <mxGeometry relative="1" as="geometry" />
        </mxCell>
        <mxCell id="uK-jH9T4eVtaYrgtIjJp-10" value="Inspect RTL Schematics" style="rounded=1;whiteSpace=wrap;html=1;" vertex="1" parent="1">
          <mxGeometry x="360" y="260" width="120" height="60" as="geometry" />
        </mxCell>
        <mxCell id="uK-jH9T4eVtaYrgtIjJp-40" style="edgeStyle=orthogonalEdgeStyle;rounded=0;orthogonalLoop=1;jettySize=auto;html=1;exitX=0.5;exitY=1;exitDx=0;exitDy=0;entryX=0.5;entryY=0;entryDx=0;entryDy=0;" edge="1" parent="1" source="uK-jH9T4eVtaYrgtIjJp-12" target="uK-jH9T4eVtaYrgtIjJp-14">
          <mxGeometry relative="1" as="geometry" />
        </mxCell>
        <mxCell id="uK-jH9T4eVtaYrgtIjJp-12" value="Modify constraint for original prototype" style="rounded=1;whiteSpace=wrap;html=1;" vertex="1" parent="1">
          <mxGeometry x="360" y="350" width="120" height="60" as="geometry" />
        </mxCell>
        <mxCell id="uK-jH9T4eVtaYrgtIjJp-41" style="edgeStyle=orthogonalEdgeStyle;rounded=0;orthogonalLoop=1;jettySize=auto;html=1;exitX=0.5;exitY=1;exitDx=0;exitDy=0;entryX=0.5;entryY=0;entryDx=0;entryDy=0;" edge="1" parent="1" source="uK-jH9T4eVtaYrgtIjJp-14" target="uK-jH9T4eVtaYrgtIjJp-16">
          <mxGeometry relative="1" as="geometry" />
        </mxCell>
        <mxCell id="uK-jH9T4eVtaYrgtIjJp-14" value="Synthesize and Implement design for original prototype" style="rounded=1;whiteSpace=wrap;html=1;" vertex="1" parent="1">
          <mxGeometry x="360" y="440" width="120" height="60" as="geometry" />
        </mxCell>
        <mxCell id="uK-jH9T4eVtaYrgtIjJp-42" style="edgeStyle=orthogonalEdgeStyle;rounded=0;orthogonalLoop=1;jettySize=auto;html=1;exitX=0.5;exitY=1;exitDx=0;exitDy=0;entryX=0.5;entryY=0;entryDx=0;entryDy=0;" edge="1" parent="1" source="uK-jH9T4eVtaYrgtIjJp-16" target="uK-jH9T4eVtaYrgtIjJp-17">
          <mxGeometry relative="1" as="geometry" />
        </mxCell>
        <mxCell id="uK-jH9T4eVtaYrgtIjJp-16" value="Generate bitstream and test prototype on hardware" style="rounded=1;whiteSpace=wrap;html=1;" vertex="1" parent="1">
          <mxGeometry x="360" y="530" width="120" height="60" as="geometry" />
        </mxCell>
        <mxCell id="uK-jH9T4eVtaYrgtIjJp-43" style="edgeStyle=orthogonalEdgeStyle;rounded=0;orthogonalLoop=1;jettySize=auto;html=1;exitX=0.5;exitY=1;exitDx=0;exitDy=0;entryX=0.5;entryY=0;entryDx=0;entryDy=0;" edge="1" parent="1" source="uK-jH9T4eVtaYrgtIjJp-17" target="uK-jH9T4eVtaYrgtIjJp-18">
          <mxGeometry relative="1" as="geometry" />
        </mxCell>
        <mxCell id="uK-jH9T4eVtaYrgtIjJp-17" value="Modify constraint to implement PMOD headers" style="rounded=1;whiteSpace=wrap;html=1;" vertex="1" parent="1">
          <mxGeometry x="560" y="80" width="120" height="60" as="geometry" />
        </mxCell>
        <mxCell id="uK-jH9T4eVtaYrgtIjJp-44" style="edgeStyle=orthogonalEdgeStyle;rounded=0;orthogonalLoop=1;jettySize=auto;html=1;exitX=0.5;exitY=1;exitDx=0;exitDy=0;entryX=0.5;entryY=0;entryDx=0;entryDy=0;" edge="1" parent="1" source="uK-jH9T4eVtaYrgtIjJp-18" target="uK-jH9T4eVtaYrgtIjJp-19">
          <mxGeometry relative="1" as="geometry" />
        </mxCell>
        <mxCell id="uK-jH9T4eVtaYrgtIjJp-18" value="Modify existing components to add SSD and BTN PMODs" style="rounded=1;whiteSpace=wrap;html=1;" vertex="1" parent="1">
          <mxGeometry x="560" y="170" width="120" height="60" as="geometry" />
        </mxCell>
        <mxCell id="uK-jH9T4eVtaYrgtIjJp-45" style="edgeStyle=orthogonalEdgeStyle;rounded=0;orthogonalLoop=1;jettySize=auto;html=1;exitX=0.5;exitY=1;exitDx=0;exitDy=0;entryX=0.5;entryY=0;entryDx=0;entryDy=0;" edge="1" parent="1" source="uK-jH9T4eVtaYrgtIjJp-19" target="uK-jH9T4eVtaYrgtIjJp-20">
          <mxGeometry relative="1" as="geometry" />
        </mxCell>
        <mxCell id="uK-jH9T4eVtaYrgtIjJp-19" value="Run simulation to verify component functionality" style="rounded=1;whiteSpace=wrap;html=1;" vertex="1" parent="1">
          <mxGeometry x="560" y="260" width="120" height="60" as="geometry" />
        </mxCell>
        <mxCell id="uK-jH9T4eVtaYrgtIjJp-46" style="edgeStyle=orthogonalEdgeStyle;rounded=0;orthogonalLoop=1;jettySize=auto;html=1;exitX=0.5;exitY=1;exitDx=0;exitDy=0;entryX=0.5;entryY=0;entryDx=0;entryDy=0;" edge="1" parent="1" source="uK-jH9T4eVtaYrgtIjJp-20" target="uK-jH9T4eVtaYrgtIjJp-21">
          <mxGeometry relative="1" as="geometry" />
        </mxCell>
        <mxCell id="uK-jH9T4eVtaYrgtIjJp-20" value="Modify constraint for second prototype" style="rounded=1;whiteSpace=wrap;html=1;" vertex="1" parent="1">
          <mxGeometry x="560" y="350" width="120" height="60" as="geometry" />
        </mxCell>
        <mxCell id="uK-jH9T4eVtaYrgtIjJp-47" style="edgeStyle=orthogonalEdgeStyle;rounded=0;orthogonalLoop=1;jettySize=auto;html=1;exitX=0.5;exitY=1;exitDx=0;exitDy=0;entryX=0.5;entryY=0;entryDx=0;entryDy=0;" edge="1" parent="1" source="uK-jH9T4eVtaYrgtIjJp-21" target="uK-jH9T4eVtaYrgtIjJp-22">
          <mxGeometry relative="1" as="geometry" />
        </mxCell>
        <mxCell id="uK-jH9T4eVtaYrgtIjJp-21" value="Synthesize and Implement design for second prototype" style="rounded=1;whiteSpace=wrap;html=1;" vertex="1" parent="1">
          <mxGeometry x="560" y="440" width="120" height="60" as="geometry" />
        </mxCell>
        <mxCell id="uK-jH9T4eVtaYrgtIjJp-48" style="edgeStyle=orthogonalEdgeStyle;rounded=0;orthogonalLoop=1;jettySize=auto;html=1;exitX=0.5;exitY=1;exitDx=0;exitDy=0;entryX=0.5;entryY=0;entryDx=0;entryDy=0;" edge="1" parent="1" source="uK-jH9T4eVtaYrgtIjJp-22" target="uK-jH9T4eVtaYrgtIjJp-23">
          <mxGeometry relative="1" as="geometry" />
        </mxCell>
        <mxCell id="uK-jH9T4eVtaYrgtIjJp-22" value="Generate bitstream and test prototype on hardware" style="rounded=1;whiteSpace=wrap;html=1;" vertex="1" parent="1">
          <mxGeometry x="560" y="530" width="120" height="60" as="geometry" />
        </mxCell>
        <mxCell id="uK-jH9T4eVtaYrgtIjJp-49" style="edgeStyle=orthogonalEdgeStyle;rounded=0;orthogonalLoop=1;jettySize=auto;html=1;exitX=0.5;exitY=1;exitDx=0;exitDy=0;entryX=0.5;entryY=0;entryDx=0;entryDy=0;" edge="1" parent="1" source="uK-jH9T4eVtaYrgtIjJp-23" target="uK-jH9T4eVtaYrgtIjJp-24">
          <mxGeometry relative="1" as="geometry" />
        </mxCell>
        <mxCell id="uK-jH9T4eVtaYrgtIjJp-23" value="Modify components based on user feedback" style="rounded=1;whiteSpace=wrap;html=1;" vertex="1" parent="1">
          <mxGeometry x="760" y="80" width="120" height="60" as="geometry" />
        </mxCell>
        <mxCell id="uK-jH9T4eVtaYrgtIjJp-50" style="edgeStyle=orthogonalEdgeStyle;rounded=0;orthogonalLoop=1;jettySize=auto;html=1;exitX=0.5;exitY=1;exitDx=0;exitDy=0;entryX=0.5;entryY=0;entryDx=0;entryDy=0;" edge="1" parent="1" source="uK-jH9T4eVtaYrgtIjJp-24" target="uK-jH9T4eVtaYrgtIjJp-25">
          <mxGeometry relative="1" as="geometry" />
        </mxCell>
        <mxCell id="uK-jH9T4eVtaYrgtIjJp-24" value="Modify constraint based on user feedback" style="rounded=1;whiteSpace=wrap;html=1;" vertex="1" parent="1">
          <mxGeometry x="760" y="170" width="120" height="60" as="geometry" />
        </mxCell>
        <mxCell id="uK-jH9T4eVtaYrgtIjJp-51" style="edgeStyle=orthogonalEdgeStyle;rounded=0;orthogonalLoop=1;jettySize=auto;html=1;exitX=0.5;exitY=1;exitDx=0;exitDy=0;entryX=0.5;entryY=0;entryDx=0;entryDy=0;" edge="1" parent="1" source="uK-jH9T4eVtaYrgtIjJp-25" target="uK-jH9T4eVtaYrgtIjJp-26">
          <mxGeometry relative="1" as="geometry" />
        </mxCell>
        <mxCell id="uK-jH9T4eVtaYrgtIjJp-25" value="Create a top level wrapper for the Simon Says game" style="rounded=1;whiteSpace=wrap;html=1;" vertex="1" parent="1">
          <mxGeometry x="760" y="260" width="120" height="60" as="geometry" />
        </mxCell>
        <mxCell id="uK-jH9T4eVtaYrgtIjJp-52" style="edgeStyle=orthogonalEdgeStyle;rounded=0;orthogonalLoop=1;jettySize=auto;html=1;exitX=0.5;exitY=1;exitDx=0;exitDy=0;entryX=0.5;entryY=0;entryDx=0;entryDy=0;" edge="1" parent="1" source="uK-jH9T4eVtaYrgtIjJp-26" target="uK-jH9T4eVtaYrgtIjJp-27">
          <mxGeometry relative="1" as="geometry" />
        </mxCell>
        <mxCell id="uK-jH9T4eVtaYrgtIjJp-26" value="Inspect RTL Schematics" style="rounded=1;whiteSpace=wrap;html=1;" vertex="1" parent="1">
          <mxGeometry x="760" y="350" width="120" height="60" as="geometry" />
        </mxCell>
        <mxCell id="uK-jH9T4eVtaYrgtIjJp-53" style="edgeStyle=orthogonalEdgeStyle;rounded=0;orthogonalLoop=1;jettySize=auto;html=1;exitX=0.5;exitY=1;exitDx=0;exitDy=0;entryX=0.5;entryY=0;entryDx=0;entryDy=0;" edge="1" parent="1" source="uK-jH9T4eVtaYrgtIjJp-27" target="uK-jH9T4eVtaYrgtIjJp-28">
          <mxGeometry relative="1" as="geometry" />
        </mxCell>
        <mxCell id="uK-jH9T4eVtaYrgtIjJp-27" value="Synthesize and Implement design for submission prototype" style="rounded=1;whiteSpace=wrap;html=1;" vertex="1" parent="1">
          <mxGeometry x="760" y="440" width="120" height="60" as="geometry" />
        </mxCell>
        <mxCell id="uK-jH9T4eVtaYrgtIjJp-54" style="edgeStyle=orthogonalEdgeStyle;rounded=0;orthogonalLoop=1;jettySize=auto;html=1;exitX=0.5;exitY=1;exitDx=0;exitDy=0;entryX=0.5;entryY=0;entryDx=0;entryDy=0;" edge="1" parent="1" source="uK-jH9T4eVtaYrgtIjJp-28" target="uK-jH9T4eVtaYrgtIjJp-29">
          <mxGeometry relative="1" as="geometry" />
        </mxCell>
        <mxCell id="uK-jH9T4eVtaYrgtIjJp-28" value="Generate bitstream and test submission on hardware" style="rounded=1;whiteSpace=wrap;html=1;" vertex="1" parent="1">
          <mxGeometry x="760" y="530" width="120" height="60" as="geometry" />
        </mxCell>
        <mxCell id="uK-jH9T4eVtaYrgtIjJp-55" style="edgeStyle=orthogonalEdgeStyle;rounded=0;orthogonalLoop=1;jettySize=auto;html=1;exitX=0.5;exitY=1;exitDx=0;exitDy=0;entryX=0.5;entryY=0;entryDx=0;entryDy=0;" edge="1" parent="1" source="uK-jH9T4eVtaYrgtIjJp-29" target="uK-jH9T4eVtaYrgtIjJp-30">
          <mxGeometry relative="1" as="geometry" />
        </mxCell>
        <mxCell id="uK-jH9T4eVtaYrgtIjJp-29" value="Showcase completed project and record demonstration" style="rounded=1;whiteSpace=wrap;html=1;" vertex="1" parent="1">
          <mxGeometry x="960" y="80" width="120" height="60" as="geometry" />
        </mxCell>
        <mxCell id="uK-jH9T4eVtaYrgtIjJp-30" value="Create report and presentation of the project" style="rounded=1;whiteSpace=wrap;html=1;" vertex="1" parent="1">
          <mxGeometry x="960" y="170" width="120" height="60" as="geometry" />
        </mxCell>
      </root>
    </mxGraphModel>
  </diagram>
</mxfile>
